<?xml version="1.0" encoding="UTF-8"?>
<svg width="128px" height="50px" viewBox="0 0 128 50" version="1.1" xmlns="http://www.w3.org/2000/svg" xmlns:xlink="http://www.w3.org/1999/xlink">
    <title>eatos_logo</title>
    <g id="Order-History-V2" stroke="none" stroke-width="1" fill="none" fill-rule="evenodd">
        <g id="Artboard" transform="translate(-90.000000, -107.000000)" fill="#EC298F" fill-rule="nonzero">
            <g id="eatos_logo" transform="translate(90.000000, 107.000000)">
                <polygon id="Path" points="3.42907801 43.4929078 3.42907801 44.4680851 1.12411348 44.4680851 1.12411348 45.5319149 3.32269504 45.5319149 3.32269504 46.5106383 1.12411348 46.5106383 1.12411348 48.4680851 0 48.4680851 0 43.4929078"></polygon>
                <path d="M6.57092199,46.712766 L6.57092199,44.641844 L7.63475177,44.641844 L7.63475177,48.4858156 L6.57092199,48.4858156 L6.57092199,47.9787234 C6.34574595,48.3304911 5.9566726,48.5430776 5.53900709,48.5425532 C5.12267443,48.5658901 4.71716321,48.4048521 4.43026952,48.1022476 C4.14337582,47.799643 4.00416583,47.3861298 4.04964539,46.9716312 L4.04964539,44.641844 L5.11347518,44.641844 L5.11347518,46.7340426 C5.11347518,47.3262411 5.32978723,47.6205674 5.76241135,47.6205674 C5.97237824,47.6229385 6.17394232,47.5382046 6.31914894,47.3865248 C6.49262578,47.2064135 6.58377079,46.9625043 6.57092199,46.712766 Z" id="Path"></path>
                <path d="M9.82624113,45.4148936 L9.82624113,47.1347518 C9.81773369,47.2630676 9.85829543,47.389823 9.93971631,47.4893617 C10.0078955,47.5690826 10.1078721,47.6145266 10.212766,47.6134752 C10.4161982,47.6105521 10.6054367,47.5086544 10.7198582,47.3404255 L11.1170213,48.0921986 C10.8350612,48.3767372 10.4536716,48.5407347 10.0531915,48.5496454 C9.69360195,48.560289 9.34612931,48.4191371 9.09582993,48.1607418 C8.84553054,47.9023465 8.71550752,47.5505581 8.73758865,47.1914894 L8.73758865,45.4184397 L8.29787234,45.4184397 L8.29787234,44.6453901 L8.74822695,44.6453901 L8.74822695,43.4964539 L9.81205674,43.4964539 L9.81205674,44.6453901 L10.7411348,44.6453901 L10.7411348,45.4184397 L9.82624113,45.4148936 Z" id="Path"></path>
                <path d="M14.0531915,46.712766 L14.0531915,44.641844 L15.1170213,44.641844 L15.1170213,48.4858156 L14.0531915,48.4858156 L14.0531915,47.9787234 C13.8294343,48.3320083 13.4394524,48.5450912 13.0212766,48.5425532 C12.6049439,48.5658901 12.1994327,48.4048521 11.912539,48.1022476 C11.6256453,47.799643 11.4864353,47.3861298 11.5319149,46.9716312 L11.5319149,44.641844 L12.5957447,44.641844 L12.5957447,46.7340426 C12.5957447,47.3262411 12.8120567,47.6205674 13.2446809,47.6205674 C13.4555462,47.6222354 13.6579411,47.5376906 13.8049645,47.3865248 C13.9771494,47.2058229 14.0669841,46.9619859 14.0531915,46.712766 L14.0531915,46.712766 Z" id="Path"></path>
                <path d="M18.0531915,45.5851064 C17.7713677,45.572705 17.5031448,45.7068164 17.3439716,45.9397163 C17.1762931,46.2065956 17.0945978,46.5185229 17.1099291,46.8333333 L17.1099291,48.5 L16.0460993,48.5 L16.0460993,44.641844 L17.1099291,44.641844 L17.1099291,45.1489362 C17.2565821,44.9848648 17.4320562,44.8490527 17.6276596,44.748227 C17.8219379,44.6431152 18.0380801,44.5848297 18.2588652,44.5780142 L18.2588652,45.5851064 L18.0531915,45.5851064 Z" id="Path"></path>
                <path d="M22.1808511,47.9255319 C21.7743084,48.3249658 21.2259457,48.5468614 20.6560284,48.5425532 C20.1229859,48.5638987 19.6030557,48.3740222 19.2092199,48.0141844 C18.8204912,47.635935 18.6126192,47.1091537 18.6382979,46.5673759 C18.6116861,46.0243778 18.8242076,45.4969616 19.2198582,45.1241135 C19.589719,44.7730919 20.082343,44.5808794 20.5921986,44.5886525 C21.0851813,44.5756894 21.5654068,44.7462958 21.9397163,45.0673759 C22.3146025,45.3989544 22.5181929,45.8831342 22.4929078,46.3829787 L22.4929078,46.9503546 L19.6950355,46.9503546 C19.727643,47.1596236 19.8458311,47.3458982 20.0212766,47.464539 C20.205219,47.596149 20.4263202,47.6657089 20.6524823,47.6631206 C21.0008839,47.6738531 21.3374064,47.5358918 21.5780142,47.2836879 L22.1808511,47.9255319 Z M21.1524823,45.6489362 C21.0008174,45.5246819 20.8094677,45.4592201 20.6134752,45.464539 C20.4029193,45.4637687 20.1977287,45.530922 20.0283688,45.6560284 C19.8569765,45.7782996 19.746004,45.9679851 19.7234043,46.177305 L21.4078014,46.177305 C21.3950738,45.9745681 21.3034165,45.7848886 21.1524823,45.6489362 Z" id="Shape"></path>
                <path d="M28.7624113,46.5638298 C28.7772079,47.0967848 28.5674814,47.611451 28.1843972,47.9822695 C27.3663339,48.7479247 26.094659,48.7479247 25.2765957,47.9822695 C24.5055626,47.2007105 24.5055626,45.9446795 25.2765957,45.1631206 C26.094659,44.3974654 27.3663339,44.3974654 28.1843972,45.1631206 C28.5618207,45.5304478 28.7709495,46.0372323 28.7624113,46.5638298 Z M25.7765957,46.5638298 C25.7657484,46.8441322 25.8621214,47.1180344 26.0460993,47.3297872 C26.2237823,47.5196782 26.4722122,47.6274465 26.7322695,47.6274465 C26.9923269,47.6274465 27.2407567,47.5196782 27.4184397,47.3297872 C27.6014528,47.1176838 27.6965824,46.8437104 27.6843972,46.5638298 C27.6959085,46.2819001 27.6009722,46.0059517 27.4184397,45.7907801 C27.2407567,45.6008892 26.9923269,45.4931208 26.7322695,45.4931208 C26.4722122,45.4931208 26.2237823,45.6008892 26.0460993,45.7907801 C25.862595,46.0056033 25.7664164,46.2814839 25.7765957,46.5638298 Z" id="Shape"></path>
                <path d="M30.6560284,44.4219858 L30.6560284,44.677305 L31.5815603,44.677305 L31.5815603,45.4503546 L30.6560284,45.4503546 L30.6560284,48.4858156 L29.5921986,48.4858156 L29.5921986,45.4503546 L29.1382979,45.4503546 L29.1382979,44.677305 L29.5886525,44.677305 L29.5886525,44.4432624 C29.56531,44.0807483 29.6966539,43.725317 29.9501192,43.4650926 C30.2035845,43.2048682 30.5554369,43.064218 30.9184397,43.0780142 C31.3052961,43.0805484 31.6757539,43.2345876 31.9503546,43.5070922 L31.5638298,44.2163121 C31.4396883,44.0523638 31.2480961,43.9533093 31.0425532,43.9468085 C30.9400244,43.9450139 30.8417387,43.9876906 30.7730496,44.0638298 C30.689163,44.1635727 30.6472163,44.2919552 30.6560284,44.4219858 Z" id="Path"></path>
                <polygon id="Path" points="37.4397163 43.4929078 37.4397163 44.4680851 35.1241135 44.4680851 35.1241135 45.5319149 37.322695 45.5319149 37.322695 46.5106383 35.1241135 46.5106383 35.1241135 48.4680851 34.0106383 48.4680851 34.0106383 43.4929078"></polygon>
                <path d="M41.9219858,46.5638298 C41.9367824,47.0967848 41.7270559,47.611451 41.3439716,47.9822695 C40.5264023,48.7457146 39.2572856,48.7457146 38.4397163,47.9822695 C37.664833,47.202294 37.664833,45.9430961 38.4397163,45.1631206 C39.2572856,44.3996754 40.5264023,44.3996754 41.3439716,45.1631206 C41.7213951,45.5304478 41.930524,46.0372323 41.9219858,46.5638298 Z M38.9361702,46.5638298 C38.9253229,46.8441322 39.0216959,47.1180344 39.2056738,47.3297872 C39.3833568,47.5196782 39.6317866,47.6274465 39.891844,47.6274465 C40.1519013,47.6274465 40.4003312,47.5196782 40.5780142,47.3297872 C40.7610272,47.1176838 40.8561569,46.8437104 40.8439716,46.5638298 C40.855483,46.2819001 40.7605466,46.0059517 40.5780142,45.7907801 C40.4003312,45.6008892 40.1519013,45.4931208 39.891844,45.4931208 C39.6317866,45.4931208 39.3833568,45.6008892 39.2056738,45.7907801 C39.0221695,46.0056033 38.9259909,46.2814839 38.9361702,46.5638298 L38.9361702,46.5638298 Z" id="Shape"></path>
                <path d="M46.4432624,46.5638298 C46.4563132,47.0964663 46.2468614,47.6104585 45.8652482,47.9822695 C45.047185,48.7479247 43.77551,48.7479247 42.9574468,47.9822695 C42.1864136,47.2007105 42.1864136,45.9446795 42.9574468,45.1631206 C43.77551,44.3974654 45.047185,44.3974654 45.8652482,45.1631206 C46.241608,45.531167 46.4505391,46.0374726 46.4432624,46.5638298 L46.4432624,46.5638298 Z M43.4574468,46.5638298 C43.4447681,46.8444056 43.5413734,47.118968 43.7269504,47.3297872 C43.9040048,47.5194914 44.1518558,47.6271968 44.4113475,47.6271968 C44.6708392,47.6271968 44.9186902,47.5194914 45.0957447,47.3297872 C45.2813216,47.118968 45.3779269,46.8444056 45.3652482,46.5638298 C45.3772007,46.2812193 45.2808023,46.0047082 45.0957447,45.7907801 C44.9186902,45.601076 44.6708392,45.4933706 44.4113475,45.4933706 C44.1518558,45.4933706 43.9040048,45.601076 43.7269504,45.7907801 C43.5418927,46.0047082 43.4454943,46.2812193 43.4574468,46.5638298 L43.4574468,46.5638298 Z" id="Shape"></path>
                <path d="M48.6595745,48.5425532 C48.1897058,48.5345028 47.7462469,48.3237629 47.4432624,47.964539 C47.0841372,47.5740722 46.8919626,47.0586371 46.9078014,46.5283688 C46.8842849,46.004778 47.0721092,45.4936915 47.429078,45.1099291 C47.7387624,44.7616485 48.182886,44.5628257 48.6489362,44.5638298 C49.0840673,44.5493379 49.5028917,44.7301348 49.7907801,45.0567376 L49.7907801,43.1702128 L50.8546099,43.1702128 L50.8546099,48.4716312 L49.7907801,48.4716312 L49.7907801,47.9787234 C49.5262838,48.3375966 49.1053601,48.5473987 48.6595745,48.5425532 L48.6595745,48.5425532 Z M47.9858156,46.570922 C47.9746685,46.8504025 48.0740372,47.1230294 48.2624113,47.3297872 C48.4271382,47.5180357 48.6647515,47.6265113 48.9148936,47.627664 C49.1594112,47.628464 49.3912743,47.5190455 49.5460993,47.3297872 C49.7253896,47.1173567 49.8178455,46.8450553 49.8049645,46.5673759 C49.8152064,46.2846735 49.7233132,46.0077352 49.5460993,45.787234 C49.3925117,45.5911963 49.1568353,45.477286 48.9078014,45.47871 C48.6540321,45.477496 48.4136528,45.59246 48.2553191,45.7907801 C48.0722521,46.0086377 47.9762561,46.2865207 47.9858156,46.570922 L47.9858156,46.570922 Z" id="Shape"></path>
                <path d="M54.8085106,44.4893617 C54.6999343,44.574186 54.6391477,44.7063307 54.6453901,44.8439716 C54.6407198,44.9898502 54.7171525,45.1263371 54.8439716,45.1985816 C55.1305983,45.3397271 55.4346625,45.4422742 55.748227,45.5035461 C56.1540891,45.5862833 56.5337728,45.7663897 56.8546099,46.0283688 C57.1274267,46.2955674 57.2699084,46.6686104 57.2446809,47.0496454 C57.2564974,47.4713454 57.0701411,47.8742424 56.7411348,48.1382979 C56.3638425,48.4302836 55.8950184,48.578598 55.4184397,48.5567376 C54.6218617,48.5513362 53.8587055,48.2358983 53.2907801,47.677305 L53.9539007,46.8617021 C54.3502463,47.2696826 54.8801623,47.5214242 55.4468085,47.570922 C55.6180046,47.5802181 55.7874957,47.5328603 55.929078,47.4361702 C56.0406941,47.3524582 56.106383,47.2210804 56.106383,47.0815603 C56.106383,46.9420402 56.0406941,46.8106624 55.929078,46.7269504 C55.6997237,46.59788 55.4504364,46.5079928 55.1914894,46.4609929 C54.7332818,46.3750751 54.2990335,46.1912151 53.9184397,45.9219858 C53.6305625,45.6551061 53.4814764,45.2706209 53.5141844,44.8794326 C53.4923282,44.4511427 53.6834477,44.039705 54.0248227,43.7801418 C54.396408,43.5150547 54.8452763,43.3803942 55.3014184,43.3971631 C55.6418601,43.3983367 55.9797599,43.4558516 56.3014184,43.5673759 C56.6189758,43.6732724 56.9137215,43.8380894 57.1702128,44.0531915 L56.606383,44.8687943 C56.2274242,44.558943 55.7553733,44.3853582 55.2659574,44.3758865 C55.1047242,44.356419 54.9419528,44.3967964 54.8085106,44.4893617 L54.8085106,44.4893617 Z" id="Path"></path>
                <path d="M61.3014184,47.9255319 C60.8964187,48.3273117 60.3470358,48.5496201 59.7765957,48.5425532 C59.2422547,48.559861 58.7225561,48.3662478 58.3297872,48.0035461 C57.9426039,47.6242696 57.7350168,47.0982105 57.7588652,46.5567376 C57.7336923,46.0139831 57.9459807,45.4871454 58.3404255,45.1134752 C58.7119897,44.7628856 59.2055075,44.5708207 59.7163121,44.5780142 C60.2092948,44.5650511 60.6895203,44.7356575 61.0638298,45.0567376 C61.4387159,45.3883161 61.6423064,45.8724959 61.6170213,46.3723404 L61.6170213,46.9503546 L58.8156028,46.9503546 C58.8514593,47.1593006 58.9704384,47.3448058 59.1453901,47.464539 C59.328351,47.5954314 59.548096,47.6649552 59.7730496,47.6631206 C60.1225094,47.6739666 60.4601685,47.5360677 60.7021277,47.2836879 L61.3014184,47.9255319 Z M60.2730496,45.6489362 C60.1217024,45.5241124 59.9301328,45.4585755 59.7340426,45.464539 C59.5245777,45.4637713 59.3205142,45.5309629 59.1524823,45.6560284 C58.9790558,45.7769547 58.8665279,45.9670881 58.8439716,46.177305 L60.5319149,46.177305 C60.5194101,45.9737425 60.4262395,45.7835724 60.2730496,45.6489362 L60.2730496,45.6489362 Z" id="Shape"></path>
                <path d="M64.2943262,45.5851064 C64.0125025,45.572705 63.7442795,45.7068164 63.5851064,45.9397163 C63.4174278,46.2065956 63.3357326,46.5185229 63.3510638,46.8333333 L63.3510638,48.5 L62.287234,48.5 L62.287234,44.641844 L63.3510638,44.641844 L63.3510638,45.1489362 C63.4984618,44.9856664 63.6737801,44.8499748 63.8687943,44.748227 C64.0630727,44.6431152 64.2792148,44.5848297 64.5,44.5780142 L64.5,45.5851064 L64.2943262,45.5851064 Z" id="Path"></path>
                <polygon id="Path" points="66.1276596 48.4858156 64.5992908 44.6347518 65.7163121 44.6347518 66.6702128 47.0567376 67.6276596 44.6347518 68.7411348 44.6347518 67.2198582 48.4858156"></polygon>
                <path d="M69.251773,44.1524823 C69.0107986,43.9047223 69.0107986,43.5101713 69.251773,43.2624113 C69.4991878,43.0172182 69.8979753,43.0172182 70.1453901,43.2624113 C70.3863645,43.5101713 70.3863645,43.9047223 70.1453901,44.1524823 C69.8979753,44.3976754 69.4991878,44.3976754 69.251773,44.1524823 L69.251773,44.1524823 Z M70.2340426,48.4858156 L69.1702128,48.4858156 L69.1702128,44.641844 L70.2340426,44.641844 L70.2340426,48.4858156 Z" id="Shape"></path>
                <path d="M72.9751773,47.5921986 C73.3631716,47.575912 73.7207097,47.3774258 73.9397163,47.0567376 L74.5744681,47.7659574 C74.1716341,48.2381918 73.5884669,48.518833 72.9680851,48.5390071 C72.4300569,48.5515391 71.9079554,48.3559099 71.5106383,47.9929078 C71.1250752,47.6159533 70.9077296,47.0994994 70.9077296,46.5602837 C70.9077296,46.021068 71.1250752,45.5046141 71.5106383,45.1276596 C71.8944911,44.7673534 72.4026415,44.5691748 72.929078,44.5744681 C73.2175365,44.5768496 73.5028506,44.6346348 73.7695035,44.7446809 C74.0510822,44.8586163 74.305001,45.0315229 74.5141844,45.251773 L73.9574468,45.9822695 C73.8359543,45.8302021 73.6804917,45.708747 73.5035461,45.6276596 C73.3371446,45.5491919 73.1556033,45.5080425 72.9716312,45.5070922 C72.7096694,45.5076835 72.4571361,45.6049089 72.2624113,45.7801418 C72.0537499,45.9786554 71.9423341,46.2584904 71.9574468,46.5460993 C71.9415199,46.8317653 72.0532373,47.1097597 72.2624113,47.3049645 C72.4543609,47.4885915 72.7095405,47.5914251 72.9751773,47.5921986 L72.9751773,47.5921986 Z" id="Path"></path>
                <path d="M78.5035461,47.9255319 C78.0985463,48.3273117 77.5491635,48.5496201 76.9787234,48.5425532 C76.4443195,48.5602458 75.9244795,48.3665799 75.5319149,48.0035461 C75.1447315,47.6242696 74.9371445,47.0982105 74.9609929,46.5567376 C74.93582,46.0139831 75.1481084,45.4871454 75.5425532,45.1134752 C76.309092,44.4212722 77.4676726,44.3971036 78.2624113,45.0567376 C78.6372975,45.3883161 78.8408879,45.8724959 78.8156028,46.3723404 L78.8156028,46.9503546 L76.0177305,46.9503546 C76.0503576,47.1605388 76.1700938,47.3472245 76.3475177,47.464539 C76.5304787,47.5954314 76.7502236,47.6649552 76.9751773,47.6631206 C77.3244754,47.6730729 77.661786,47.5353163 77.9042553,47.2836879 L78.5035461,47.9255319 Z M77.4751773,45.6489362 C77.3238301,45.5241124 77.1322605,45.4585755 76.9361702,45.464539 C76.7266239,45.4632553 76.5224009,45.5304994 76.3546099,45.6560284 C76.1811835,45.7769547 76.0686555,45.9670881 76.0460993,46.177305 L77.7198582,46.177305 C77.7114135,45.9757468 77.623429,45.7857515 77.4751773,45.6489362 L77.4751773,45.6489362 Z" id="Shape"></path>
                <polygon id="Path" points="83.464539 44.4680851 83.464539 48.4964539 82.3510638 48.4964539 82.3510638 44.4680851 80.9326241 44.4680851 80.9326241 43.5035461 84.8723404 43.5035461 84.8723404 44.4680851"></polygon>
                <path d="M88.8014184,47.9255319 C88.3948758,48.3249658 87.8465131,48.5468614 87.2765957,48.5425532 C86.7420658,48.5610201 86.2219406,48.367248 85.8297872,48.0035461 C85.4410586,47.6252967 85.2331866,47.0985154 85.2588652,46.5567376 C85.2322535,46.0137395 85.444775,45.4863233 85.8404255,45.1134752 C86.2102863,44.7624536 86.7029103,44.5702411 87.212766,44.5780142 C87.7057487,44.5650511 88.1859742,44.7356575 88.5602837,45.0567376 C88.9351698,45.3883161 89.1387603,45.8724959 89.1134752,46.3723404 L89.1134752,46.9503546 L86.3156028,46.9503546 C86.3482104,47.1596236 86.4663985,47.3458982 86.641844,47.464539 C86.8257864,47.596149 87.0468875,47.6657089 87.2730496,47.6631206 C87.6214513,47.6738531 87.9579737,47.5358918 88.1985816,47.2836879 L88.8014184,47.9255319 Z M87.7730496,45.6489362 C87.6213848,45.5246819 87.4300351,45.4592201 87.2340426,45.464539 C87.0234867,45.4637687 86.8182961,45.530922 86.6489362,45.6560284 C86.4775439,45.7782996 86.3665714,45.9679851 86.3439716,46.177305 L88.0283688,46.177305 C88.0156412,45.9745681 87.9239839,45.7848886 87.7730496,45.6489362 Z" id="Shape"></path>
                <path d="M91.6134752,47.5921986 C92.0011583,47.5748097 92.3582365,47.3765788 92.5780142,47.0567376 L93.212766,47.7659574 C92.809112,48.2371266 92.2264439,48.5175276 91.606383,48.5390071 C91.0652634,48.5615939 90.5364686,48.373465 90.1312057,48.0141844 C89.7474321,47.6362668 89.5313312,47.1201732 89.5313312,46.5815603 C89.5313312,46.0429474 89.7474321,45.5268538 90.1312057,45.1489362 C90.5154557,44.7892601 91.0233431,44.591184 91.5496454,44.5957447 C91.8369926,44.5977816 92.1212112,44.6555888 92.3865248,44.7659574 C92.6685103,44.8810668 92.9233566,45.0537825 93.1347518,45.2730496 L92.6134752,45.9858156 C92.4911655,45.8345769 92.3359138,45.7132865 92.1595745,45.6312057 C91.993173,45.552738 91.8116317,45.5115886 91.6276596,45.5106383 C91.3595938,45.506805 91.0999644,45.6043243 90.9007092,45.7836879 C90.6929455,45.9825669 90.5827822,46.2625111 90.5992908,46.5496454 C90.5824579,46.8347505 90.6928409,47.112656 90.9007092,47.3085106 C91.0936069,47.4902264 91.348466,47.5916629 91.6134752,47.5921986 Z" id="Path"></path>
                <path d="M94.8829787,46.4148936 L94.8829787,48.4858156 L93.8191489,48.4858156 L93.8191489,43.1843972 L94.8829787,43.1843972 L94.8829787,45.070922 C95.1614061,44.7622103 95.5559465,44.5835747 95.9716312,44.5780142 C96.3565125,44.5695109 96.7267429,44.725601 96.9893617,45.0070922 C97.2751945,45.3166638 97.4246852,45.7280828 97.4042553,46.1489362 L97.4042553,48.4858156 L96.3404255,48.4858156 L96.3404255,46.3865248 C96.3404255,45.7943262 96.1241135,45.5 95.6914894,45.5 C95.4813806,45.4986171 95.2795164,45.5816625 95.1312057,45.7304965 C94.9573502,45.9144678 94.8674826,46.1622456 94.8829787,46.4148936 Z" id="Path"></path>
                <path d="M99.3510638,46.3404255 L99.3510638,48.4858156 L98.287234,48.4858156 L98.287234,44.641844 L99.3510638,44.641844 L99.3510638,45.070922 C99.6297992,44.7605901 100.026147,44.581719 100.443262,44.5780142 C100.828144,44.5695109 101.198374,44.725601 101.460993,45.0070922 C101.743219,45.3184184 101.889948,45.7292602 101.868794,46.1489362 L101.868794,48.4858156 L100.804965,48.4858156 L100.804965,46.3120567 C100.804965,45.7234043 100.588652,45.429078 100.156028,45.429078 C99.9456851,45.4264789 99.7433661,45.5097114 99.5957447,45.6595745 C99.4233657,45.8428162 99.3347585,46.0893754 99.3510638,46.3404255 Z" id="Path"></path>
                <path d="M106.549645,46.5638298 C106.564442,47.0967848 106.354715,47.611451 105.971631,47.9822695 C105.154062,48.7457146 103.884945,48.7457146 103.067376,47.9822695 C102.296343,47.2007105 102.296343,45.9446795 103.067376,45.1631206 C103.884945,44.3996754 105.154062,44.3996754 105.971631,45.1631206 C106.349055,45.5304478 106.558184,46.0372323 106.549645,46.5638298 Z M103.567376,46.5638298 C103.555191,46.8437104 103.65032,47.1176838 103.833333,47.3297872 C104.011016,47.5196782 104.259446,47.6274465 104.519504,47.6274465 C104.779561,47.6274465 105.027991,47.5196782 105.205674,47.3297872 C105.388687,47.1176838 105.483816,46.8437104 105.471631,46.5638298 C105.483143,46.2819001 105.388206,46.0059517 105.205674,45.7907801 C105.027991,45.6008892 104.779561,45.4931208 104.519504,45.4931208 C104.259446,45.4931208 104.011016,45.6008892 103.833333,45.7907801 C103.650801,46.0059517 103.555865,46.2819001 103.567376,46.5638298 L103.567376,46.5638298 Z" id="Shape"></path>
                <polygon id="Path" points="108.301418 48.4858156 107.237589 48.4858156 107.237589 43.1843972 108.301418 43.1843972"></polygon>
                <path d="M113.042553,46.5638298 C113.055604,47.0964663 112.846152,47.6104585 112.464539,47.9822695 C111.646476,48.7479247 110.374801,48.7479247 109.556738,47.9822695 C108.785704,47.2007105 108.785704,45.9446795 109.556738,45.1631206 C110.374801,44.3974654 111.646476,44.3974654 112.464539,45.1631206 C112.840899,45.531167 113.04983,46.0374726 113.042553,46.5638298 L113.042553,46.5638298 Z M110.056738,46.5638298 C110.044059,46.8444056 110.140664,47.118968 110.326241,47.3297872 C110.503296,47.5194914 110.751147,47.6271968 111.010638,47.6271968 C111.27013,47.6271968 111.517981,47.5194914 111.695035,47.3297872 C111.879013,47.1180344 111.975386,46.8441322 111.964539,46.5638298 C111.974718,46.2814839 111.87854,46.0056033 111.695035,45.7907801 C111.517981,45.601076 111.27013,45.4933706 111.010638,45.4933706 C110.751147,45.4933706 110.503296,45.601076 110.326241,45.7907801 C110.141183,46.0047082 110.044785,46.2812193 110.056738,46.5638298 L110.056738,46.5638298 Z" id="Shape"></path>
                <path d="M116.560284,47.8333333 C116.245584,48.1993923 115.784073,48.406097 115.301418,48.3971631 C114.826144,48.4081692 114.367194,48.2235636 114.031915,47.8865248 C113.67682,47.5247967 113.48911,47.0310942 113.514184,46.5248227 C113.495114,46.0052555 113.686961,45.5000571 114.046099,45.1241135 C114.356585,44.7789759 114.798176,44.5807103 115.262411,44.5780142 C115.709174,44.5731927 116.131162,44.7828678 116.397163,45.141844 L116.397163,44.6347518 L117.460993,44.6347518 L117.460993,47.9858156 C117.466048,48.2986348 117.405655,48.6090564 117.283688,48.8971631 C117.179596,49.1434054 117.014915,49.3593205 116.804965,49.5248227 C116.407333,49.8405411 115.911867,50.007369 115.404255,49.9964539 C115.108152,49.9947673 114.81402,49.9481367 114.531915,49.858156 C114.248775,49.7743565 113.983228,49.6397808 113.748227,49.4609929 L114.163121,48.6560284 C114.480336,48.9104638 114.873527,49.051513 115.280142,49.0567376 C115.616364,49.0745087 115.947652,48.9699578 116.212766,48.7624113 C116.461906,48.5203958 116.589437,48.1794434 116.560284,47.8333333 L116.560284,47.8333333 Z M116.411348,46.4822695 C116.426357,46.2156332 116.334471,45.9540112 116.156028,45.7553191 C115.988864,45.5831096 115.757682,45.4880681 115.51773,45.4929078 C115.274035,45.4903454 115.039313,45.5847446 114.865248,45.7553191 C114.679924,45.9436991 114.581049,46.2005165 114.592199,46.464539 C114.579966,46.7358767 114.675576,47.0010348 114.858156,47.2021277 C115.025183,47.3854946 115.26262,47.4887282 115.510638,47.4858156 C115.756104,47.489891 115.991373,47.3877689 116.156028,47.2056738 C116.328141,47.0046843 116.419171,46.7467659 116.411348,46.4822695 Z" id="Shape"></path>
                <path d="M119.031915,49.9964539 C118.632407,49.98631 118.251861,49.8239441 117.968085,49.5425532 L118.453901,48.748227 C118.596306,48.9079507 118.796903,49.0037771 119.010638,49.0141844 C119.116265,49.0104657 119.2132,48.954695 119.269504,48.8652482 C119.337295,48.7765684 119.37461,48.6683537 119.375887,48.5567376 C119.375887,48.4479905 118.880615,47.1477541 117.890071,44.6560284 L119.031915,44.6560284 L119.968085,47.0496454 L120.904255,44.6560284 L122.046099,44.6560284 L120.27305,49.1843972 C120.179532,49.4338789 120.009478,49.6473765 119.787234,49.7943262 C119.561583,49.9362795 119.298304,50.0067344 119.031915,49.9964539 Z" id="Path"></path>
                <path d="M18.9361702,17.2092199 C17.918344,16.3669701 16.6290933,15.9233569 15.3085106,15.9609929 C13.9026727,15.9602223 12.5343084,16.4142705 11.4078014,17.2553191 C10.2525481,18.075656 9.50285514,19.3505211 9.34751773,20.7588652 L20.6702128,20.7588652 C20.5070922,19.2269504 19.929078,18.0437352 18.9361702,17.2092199 Z M40.5460993,25.1702128 C37.6666667,25.1702128 36.2269504,26.070922 36.2269504,27.858156 C36.1893098,28.6961797 36.5774756,29.4965216 37.2588652,29.9858156 C37.9468085,30.4822695 38.929078,30.7269504 40.2092199,30.7269504 C41.4402471,30.7446017 42.6380975,30.3277397 43.5921986,29.5496454 C44.5525518,28.7969878 45.0954704,27.6307672 45.0531915,26.4113475 L45.0531915,25.1595745 L40.5460993,25.1702128 Z M40.5460993,25.1702128 C37.6666667,25.1702128 36.2269504,26.070922 36.2269504,27.858156 C36.1893098,28.6961797 36.5774756,29.4965216 37.2588652,29.9858156 C37.9468085,30.4822695 38.929078,30.7269504 40.2092199,30.7269504 C41.4402471,30.7446017 42.6380975,30.3277397 43.5921986,29.5496454 C44.5525518,28.7969878 45.0954704,27.6307672 45.0531915,26.4113475 L45.0531915,25.1595745 L40.5460993,25.1702128 Z M18.9361702,17.2092199 C17.918344,16.3669701 16.6290933,15.9233569 15.3085106,15.9609929 C13.9026727,15.9602223 12.5343084,16.4142705 11.4078014,17.2553191 C10.2525481,18.075656 9.50285514,19.3505211 9.34751773,20.7588652 L20.6702128,20.7588652 C20.5070922,19.2269504 19.929078,18.0437352 18.9361702,17.2092199 L18.9361702,17.2092199 Z M72.4007092,10.4432624 L72.4007092,5.91843972 C72.4007092,2.66312057 70.2092199,0 67.5035461,0 L4.9929078,0 C2.29078014,0 0.0957446809,2.66312057 0.0957446809,5.91843972 L0.0957446809,33.3865248 C0.0957446809,36.6595745 2.29078014,39.322695 4.9929078,39.322695 L67.5141844,39.322695 C70.1595745,39.322695 72.3333333,36.7553191 72.4113475,33.5815603 C70.1595745,35.6205674 67.8014184,36.6382979 65.3404255,36.6382979 C63.0013079,36.6931029 60.7369931,35.8123943 59.0496454,34.1914894 C57.3475177,32.5638298 56.4822695,30.3297872 56.4822695,27.5283688 L56.4822695,15.6347518 L53.4680851,15.6347518 L53.4680851,10.4432624 L56.4822695,10.4432624 L56.4822695,2.72340426 L63.7340426,2.72340426 L63.7340426,10.4432624 L72.4007092,10.4432624 Z M27.9574468,25.893617 L9.16312057,25.893617 C9.38560206,27.3007746 10.1850287,28.5513246 11.3687943,29.3439716 C12.5947137,30.2363078 14.0760066,30.7089285 15.5921986,30.6914894 C18.1170213,30.6914894 20.1950355,29.8439716 21.8262411,28.1489362 L25.858156,32.5106383 C23.1269411,35.1902485 19.4430501,36.67503 15.6170213,36.6382979 C11.6997636,36.6382979 8.46099291,35.43026 5.90070922,33.0141844 C3.34042553,30.5981087 2.05791962,27.3605201 2.05319149,23.3014184 C2.05319149,19.2423168 3.3534279,16.0118203 5.95390071,13.6099291 C8.44472372,11.2612584 11.7505039,9.97200407 15.1737589,10.0141844 C18.7198582,10.0141844 21.7352246,11.0851064 24.2198582,13.2269504 C26.7044917,15.3687943 27.9432624,18.3120567 27.9361702,22.0567376 L27.9574468,25.893617 Z M52.2978723,36.2553191 L45.535461,36.2553191 L45.535461,33.1205674 C43.679669,35.4562648 41.3841608,36.6241135 38.6489362,36.6241135 C35.9137116,36.6241135 33.6193853,35.8333333 31.7659574,34.251773 C29.9125296,32.6654846 28.9846336,30.5543735 28.9822651,27.9184397 C28.9799054,25.2825059 29.9397163,23.3073286 31.8617021,21.9929078 C33.7813239,20.6808511 36.4042553,20.0248227 39.7304965,20.0248227 L45.0957447,20.0248227 L45.0957447,19.8829787 C45.0957447,17.1312057 43.6406619,15.7553191 40.7304965,15.7553191 C39.3783697,15.7744263 38.0396418,16.0263374 36.7730496,16.5 C35.5019084,16.9271578 34.3054116,17.5505326 33.2269504,18.3475177 L30.0141844,13.6950355 C33.3816205,11.2380337 37.4560159,9.94129578 41.6241135,10 C44.7588652,10 47.3167849,10.7836879 49.2978723,12.3510638 C51.2789598,13.9184397 52.2706856,16.4007092 52.2730496,19.7978723 L52.2978723,36.2553191 Z M36.2304965,27.858156 C36.1928559,28.6961797 36.5810217,29.4965216 37.2624113,29.9858156 C37.9503546,30.4822695 38.9326241,30.7269504 40.212766,30.7269504 C41.4437932,30.7446017 42.6416436,30.3277397 43.5957447,29.5496454 C44.5560979,28.7969878 45.0990165,27.6307672 45.0567376,26.4113475 L45.0567376,25.1595745 L40.5460993,25.1595745 C37.6666667,25.1702128 36.2304965,26.070922 36.2304965,27.858156 Z M18.9397163,17.2198582 C17.92248,16.3729652 16.6316641,15.9254656 15.3085106,15.9609929 C13.9026727,15.9602223 12.5343084,16.4142705 11.4078014,17.2553191 C10.2525481,18.075656 9.50285514,19.3505211 9.34751773,20.7588652 L20.6702128,20.7588652 C20.5070922,19.2269504 19.929078,18.0437352 18.9361702,17.2092199 L18.9397163,17.2198582 Z M18.9397163,17.2198582 C17.92248,16.3729652 16.6316641,15.9254656 15.3085106,15.9609929 C13.9026727,15.9602223 12.5343084,16.4142705 11.4078014,17.2553191 C10.2525481,18.075656 9.50285514,19.3505211 9.34751773,20.7588652 L20.6702128,20.7588652 C20.5070922,19.2269504 19.929078,18.0437352 18.9361702,17.2092199 L18.9397163,17.2198582 Z M18.9397163,17.2198582 C17.92248,16.3729652 16.6316641,15.9254656 15.3085106,15.9609929 C13.9026727,15.9602223 12.5343084,16.4142705 11.4078014,17.2553191 C10.2525481,18.075656 9.50285514,19.3505211 9.34751773,20.7588652 L20.6702128,20.7588652 C20.5070922,19.2269504 19.929078,18.0437352 18.9361702,17.2092199 L18.9397163,17.2198582 Z M63.7375887,15.6453901 L63.7375887,27.2056738 C63.6882742,28.0452954 63.9609274,28.8721322 64.5,29.5177305 C64.9520082,30.0558721 65.6199177,30.3651376 66.322695,30.3617021 C67.6737589,30.3617021 68.8049645,29.751773 69.7340426,28.5390071 L72.4148936,33.5744681 L72.4148936,15.6347518 L63.7375887,15.6453901 Z" id="Shape"></path>
                <path d="M101.439716,23.2446809 C101.51721,26.7791894 100.117731,30.1860016 97.5780142,32.6453901 C95.0035461,35.1914894 91.7671395,36.463357 87.8687943,36.4609962 C83.9704492,36.4586288 80.7328605,35.1867612 78.1560284,32.6453901 C73.0018271,27.4283046 73.0018271,19.0362344 78.1560284,13.8191489 C80.7352246,11.2588652 83.9728132,9.97754137 87.8687943,9.97517404 C91.7647754,9.97281324 95.001182,11.2541371 97.5780142,13.8191489 C100.117221,16.2891314 101.515959,19.7031315 101.439716,23.2446809 L101.439716,23.2446809 Z M81.4893617,23.2446809 C81.4893617,25.3439716 82.0862884,27.0531915 83.2801418,28.3723404 C84.4684492,29.6367958 86.1265013,30.353925 87.8617021,30.353925 C89.5969029,30.353925 91.2549551,29.6367958 92.4432624,28.3723404 C93.6252955,27.0531915 94.2163121,25.3439716 94.2163121,23.2446809 C94.2163121,21.1453901 93.6252955,19.4267139 92.4432624,18.0886525 C91.261979,16.8116215 89.6013109,16.0855678 87.8617021,16.0855678 C86.1220934,16.0855678 84.4614252,16.8116215 83.2801418,18.0886525 C82.0886525,19.4267139 81.4917258,21.1453901 81.4893617,23.2446809 Z" id="Shape"></path>
                <path d="M122.007092,28.0851064 C122.007092,30.6170213 121.07565,32.6453901 119.212766,34.1702128 C117.349882,35.6950355 114.985816,36.4586288 112.120567,36.4609929 C110.090331,36.4410498 108.076486,36.0950324 106.156028,35.4361702 C104.12875,34.7742545 102.238685,33.7493179 100.578014,32.4113475 L103.72695,27.9255319 C106.400709,29.9964539 109.248227,31.0307329 112.269504,31.0283688 C113.039778,31.0697583 113.804666,30.8782275 114.464539,30.4787234 C114.973683,30.1721781 115.282599,29.6190967 115.276596,29.0248227 C115.276596,28.4219858 114.904255,27.8617021 114.156028,27.3546099 C113.146221,26.7321993 112.05399,26.2547212 110.911348,25.9361702 C109.492908,25.4940898 108.411348,25.1122931 107.666667,24.7907801 C106.779911,24.3989649 105.926096,23.9364817 105.113475,23.4078014 C103.163121,22.1832151 102.187943,20.3865248 102.187943,18.0177305 C102.145305,15.7354162 103.212064,13.5741377 105.049645,12.2198582 C106.959811,10.7234043 109.425532,9.9751773 112.446809,9.9751773 C115.468085,9.9751773 118.490544,10.9940898 121.514184,13.0319149 L118.85461,17.8014184 C116.62766,16.2765957 114.408983,15.5130024 112.198582,15.5106383 C109.98818,15.5082742 108.882979,16.1134752 108.882979,17.3262411 C108.895617,18.0150757 109.312435,18.6319664 109.946809,18.9007092 C111.066843,19.4459175 112.231943,19.8932114 113.429078,20.2375887 C115.053191,20.7458629 116.206856,21.1347518 116.890071,21.4042553 C117.741376,21.7606608 118.563097,22.1839717 119.347518,22.6702128 C121.118203,23.7529551 122.004728,25.5579196 122.007092,28.0851064 Z" id="Path"></path>
                <path d="M127.078014,11.5602837 L126.343972,13.0992908 L125.989362,13.0992908 L125.237589,11.5602837 L125.237589,13.3333333 L124.631206,13.3333333 L124.631206,10.5212766 L125.453901,10.5212766 L126.163121,12.0673759 L126.87234,10.5212766 L127.687943,10.5212766 L127.687943,13.3333333 L127.08156,13.3333333 L127.078014,11.5602837 Z M123.382979,11.0602837 L123.382979,13.3297872 L122.776596,13.3297872 L122.776596,11.0602837 L122.007092,11.0602837 L122.007092,10.5177305 L124.134752,10.5177305 L124.134752,11.0602837 L123.382979,11.0602837 Z" id="Shape"></path>
            </g>
        </g>
    </g>
</svg>