<?xml version="1.0" encoding="UTF-8"?>
<svg width="43px" height="43px" viewBox="0 0 43 43" version="1.1" xmlns="http://www.w3.org/2000/svg"
     xmlns:xlink="http://www.w3.org/1999/xlink">
  <title>Net Sales</title>
  <defs>
    <ellipse id="path-1" cx="20.684979" cy="20.625" rx="20.684979" ry="20.625"></ellipse>
  </defs>
  <g id="layout" stroke="none" stroke-width="1" fill="none" fill-rule="evenodd">
    <g id="eatOS-Dashboard-4.0" transform="translate(-439.000000, -142.000000)">
      <g id="Net-Sales" transform="translate(237.000000, 122.000000)">
        <g transform="translate(203.000000, 21.000000)">
          <g id="Mask-group">
            <mask id="mask-2" fill="white">
              <use xlink:href="#path-1"></use>
            </mask>
            <use id="icon-bg" stroke-opacity="0.196896853" stroke="#DF1683" fill="#FFFFFF" xlink:href="#path-1"></use>
          </g>
          <g id="bx-copy-alt" transform="translate(10.312500, 9.453125)">
            <rect id="Background" x="0" y="0" width="20.625" height="20.625"></rect>
            <path
              d="M17.1875006,1.71875 L8.5937501,1.71875 C7.64585995,1.71875 6.8750002,2.48960943 6.8750002,3.43750003 L6.8750002,6.8750002 L3.43750003,6.8750002 C2.48960923,6.8750002 1.71875,7.64585995 1.71875,8.5937501 L1.71875,17.1875006 C1.71875,18.1353918 2.48960943,18.90625 3.43750003,18.90625 L12.0312504,18.90625 C12.9791406,18.90625 13.7499998,18.1353918 13.7499998,17.1875006 L13.7499998,13.7499998 L17.1875006,13.7499998 C18.1353918,13.7499998 18.90625,12.9791406 18.90625,12.0312504 L18.90625,3.43750003 C18.90625,2.48960943 18.1353918,1.71875 17.1875006,1.71875 L17.1875006,1.71875 Z M3.4375,17.1875 L3.4375,8.59375 L12.0312498,8.59375 L12.0329686,17.1875 L3.4375,17.1875 L3.4375,17.1875 Z M17.1875,12.03125 L13.7500002,12.03125 L13.7500002,8.5937502 C13.7500002,7.6458598 12.9791405,6.87500005 12.0312501,6.87500005 L8.59375,6.87500005 L8.59375,3.4375 L17.1875,3.4375 L17.1875,12.03125 L17.1875,12.03125 Z"
              id="Shape" fill="#DF1683"></path>
            <path
              d="M5.15625,10.3125 L10.3125,10.3125 L10.3125,12.03125 L5.15625,12.03125 L5.15625,10.3125 Z M5.15625,13.75 L10.3125,13.75 L10.3125,15.46875 L5.15625,15.46875 L5.15625,13.75 Z"
              id="Shape" fill="#DF1683"></path>
          </g>
        </g>
      </g>
    </g>
  </g>
</svg>
