<?xml version="1.0" encoding="UTF-8"?>
<svg width="16px" height="16px" viewBox="0 0 16 16" version="1.1" xmlns="http://www.w3.org/2000/svg"
     xmlns:xlink="http://www.w3.org/1999/xlink">
  <title>Analytics &amp; Reports</title>
  <g id="layout" stroke="none" stroke-width="1" fill="none" fill-rule="evenodd">
    <g id="Artboard" transform="translate(-203.000000, -153.000000)">
      <g id="Analytics-&amp;-Reports" transform="translate(203.000000, 153.000000)">
        <rect id="Background" x="0" y="0" width="16" height="16"></rect>
        <path
          d="M4.00001122,14.0001042 L2.00001119,14.0001042 C1.63134454,14.0001042 1.33334451,13.7014377 1.33334451,13.3334369 L1.33334451,8.00010366 C1.33334451,7.63210358 1.63134454,7.33343692 2.00001119,7.33343692 L4.00001122,7.33343692 C4.36867787,7.33343692 4.66667785,7.63210358 4.66667785,8.00010366 L4.66667785,13.3334369 C4.66667785,13.7014377 4.36867787,14.0001042 4.00001122,14.0001042 L4.00001122,14.0001042 Z M8.66667519,14.000095 L6.66667496,14.000095 C6.2980086,14.000095 6.00000822,13.7014284 6.00000822,13.3334287 L6.00000822,2.00009536 C6.00000822,1.63209534 6.29800796,1.3334287 6.66667496,1.3334287 L8.66667519,1.3334287 C9.03534148,1.3334287 9.33334188,1.63209534 9.33334188,2.00009536 L9.33334188,13.3334287 C9.33334188,13.7014284 9.03534227,14.000095 8.66667519,14.000095 L8.66667519,14.000095 Z M13.3333389,14.0000885 L11.3333387,14.0000885 C10.9646723,14.0000885 10.6666719,13.7014221 10.6666719,13.3334202 L10.6666719,6.00008697 C10.6666719,5.63208685 10.9646723,5.33342015 11.3333387,5.33342015 L13.3333389,5.33342015 C13.7020052,5.33342015 14.0000056,5.63208685 14.0000056,6.00008697 L14.0000056,13.3334202 C14.0000056,13.7014221 13.7020052,14.0000885 13.3333389,14.0000885 L13.3333389,14.0000885 Z"
          id="Shape" fill="#000000"></path>
      </g>
    </g>
  </g>
</svg>
