<?xml version="1.0" encoding="UTF-8"?>
<svg width="16px" height="16px" viewBox="0 0 16 16" version="1.1" xmlns="http://www.w3.org/2000/svg"
     xmlns:xlink="http://www.w3.org/1999/xlink">
  <title>Business Settings</title>
  <g id="layout" stroke="none" stroke-width="1" fill="none" fill-rule="evenodd">
    <g id="Artboard" transform="translate(-227.000000, -90.000000)">
      <g id="Business-Settings" transform="translate(227.000000, 90.000000)">
        <rect id="Background" x="0" y="0" width="16" height="16"></rect>
        <path
          d="M2.66666798,3.99999145 L4.00000123,3.99999145 L4.00000123,5.33332495 L2.66666798,5.33332495 L2.66666798,3.99999145 Z M2.66666798,7.33335274 L4.00000123,7.33335274 L4.00000123,8.66668607 L2.66666798,8.66668607 L2.66666798,7.33335274 Z M2.66666798,10.6666298 L4.00000123,10.6666298 L4.00000123,11.9999638 L2.66666798,11.9999638 L2.66666798,10.6666298 Z M13.3333452,5.33332495 L13.3333452,3.99999145 L12.5333445,3.99999145 L6.13334559,3.99999145 L5.34867894,3.99999145 L5.34867894,5.33332495 L6.13334559,5.33332495 L12.5333445,5.33332495 L13.3333452,5.33332495 Z M5.33333596,7.33335274 L13.333336,7.33335274 L13.333336,8.66668607 L5.33333596,8.66668607 L5.33333596,7.33335274 Z M5.33333596,10.6666298 L13.333336,10.6666298 L13.333336,11.9999638 L5.33333596,11.9999638 L5.33333596,10.6666298 Z"
          id="Shape" fill="#000000"></path>
      </g>
    </g>
  </g>
</svg>
