<?xml version="1.0" encoding="UTF-8"?>
<svg width="16px" height="16px" viewBox="0 0 16 16" version="1.1" xmlns="http://www.w3.org/2000/svg"
     xmlns:xlink="http://www.w3.org/1999/xlink">
  <title>Connect &amp; Learn</title>
  <g id="layout" stroke="none" stroke-width="1" fill="none" fill-rule="evenodd">
    <g id="Artboard" transform="translate(-226.000000, -175.000000)">
      <g id="Connect-&amp;-Learn" transform="translate(226.000000, 175.000000)">
        <rect id="Background" x="0" y="0" width="15.2777778" height="15.2777778"></rect>
        <path
          d="M10.185185,1.27314038 C10.5372103,1.27314038 10.8217594,1.557689 10.8217594,1.90971444 L10.8217594,1.90971444 L12.0949075,1.90971444 C12.797049,1.90971444 13.3680556,2.4807213 13.3680556,3.1828626 L13.3680556,3.1828626 L13.3680556,12.7314737 C13.3680556,13.4336153 12.797049,14.0046214 12.0949075,14.0046214 L12.0949075,14.0046214 L3.18287038,14.0046214 C2.48072923,14.0046214 1.90972222,13.4336153 1.90972222,12.7314737 L1.90972222,12.7314737 L1.90972222,3.1828626 C1.90972222,2.4807214 2.48072923,1.90971444 3.18287038,1.90971444 L3.18287038,1.90971444 L4.45601854,1.90971444 C4.45601854,1.557689 4.74056718,1.27314038 5.09259274,1.27314038 L5.09259274,1.27314038 Z M4.45601848,3.1828626 L3.18287034,3.1828626 L3.18287034,12.7314737 L12.0949069,12.7314737 L12.0949069,3.1828626 L10.8217594,3.1828626 L10.8217594,4.45601081 L4.45601848,4.45601081 L4.45601848,3.1828626 Z M9.41683811,6.23396556 L10.3169541,7.13408116 L7.00231237,10.4487224 L4.96081935,8.40722947 L5.86093482,7.50711387 L7.00231237,8.64849149 L9.41683811,6.23396556 Z"
          id="Combined-Shape" fill="#000000"></path>
      </g>
    </g>
  </g>
</svg>
