<?xml version="1.0" encoding="UTF-8"?>
<svg width="16px" height="16px" viewBox="0 0 16 16" version="1.1" xmlns="http://www.w3.org/2000/svg"
     xmlns:xlink="http://www.w3.org/1999/xlink">
  <title>Employees</title>
  <g id="layout" stroke="none" stroke-width="1" fill="none" fill-rule="evenodd">
    <g id="Artboard" transform="translate(-226.000000, -132.000000)">
      <g id="Employees" transform="translate(226.000000, 132.000000)">
        <rect id="Background" x="0" y="0" width="15.2777778" height="15.2777778"></rect>
        <path
          d="M10.5555556,8 C11.4755556,8 12.2155556,7.28888889 12.2155556,6.41269841 C12.2155556,5.53650794 11.4755556,4.82539683 10.5555556,4.82539683 C9.63555556,4.82539683 8.88888889,5.53650794 8.88888889,6.41269841 C8.88888889,7.28888889 9.63555556,8 10.5555556,8 L10.5555556,8 Z M5.55555556,7.36507937 C6.66222222,7.36507937 7.54888889,6.51428571 7.54888889,5.46031746 C7.54888889,4.40634921 6.66222222,3.55555556 5.55555556,3.55555556 C4.44888889,3.55555556 3.55555556,4.40634921 3.55555556,5.46031746 C3.55555556,6.51428571 4.44888889,7.36507937 5.55555556,7.36507937 L5.55555556,7.36507937 Z M10.5555556,9.26984127 C9.33555556,9.26984127 6.88888889,9.85396825 6.88888889,11.015873 L6.88888889,12.4444444 L14.2222222,12.4444444 L14.2222222,11.015873 C14.2222222,9.85396825 11.7755556,9.26984127 10.5555556,9.26984127 L10.5555556,9.26984127 Z M5.55555556,8.63492063 C4.00222222,8.63492063 0.888888889,9.37777778 0.888888889,10.8571429 L0.888888889,12.4444444 L5.55555556,12.4444444 L5.55555556,11.015873 C5.55555556,10.4761905 5.77555556,9.53015873 7.13555556,8.81269841 C6.55555556,8.6984127 5.99555556,8.63492063 5.55555556,8.63492063 L5.55555556,8.63492063 Z"
          id="Shape" fill="#000000"></path>
      </g>
    </g>
  </g>
</svg>
