<?xml version="1.0" encoding="UTF-8"?>
<svg width="16px" height="16px" viewBox="0 0 16 16" version="1.1" xmlns="http://www.w3.org/2000/svg"
     xmlns:xlink="http://www.w3.org/1999/xlink">
  <title>Hardware</title>
  <g id="layout" stroke="none" stroke-width="1" fill="none" fill-rule="evenodd">
    <g id="Artboard" transform="translate(-226.000000, -152.000000)">
      <g id="Hardware" transform="translate(226.000000, 152.000000)">
        <rect id="Background" x="0" y="0" width="16" height="16"></rect>
        <path
          d="M8.00001118,1.3334287 C4.3860113,1.3334287 1.33334451,4.38609548 1.33334451,8.00009537 C1.33334451,11.6140951 4.3860113,14.666762 8.00001118,14.666762 C11.6140109,14.666762 14.6666778,11.6140951 14.6666778,8.00009537 C14.6666778,4.38609568 11.6140109,1.3334287 8.00001118,1.3334287 L8.00001118,1.3334287 Z M9.4086748,10.0001345 L6.65734161,10.0001345 L5.50867523,7.93746828 L6.80134143,6.0001345 L9.29200813,6.0001345 L10.5393419,8.04146851 L9.4086748,10.0001345 L9.4086748,10.0001345 Z M2.66666798,8.00006143 C2.66666798,7.36472805 2.79066792,6.75339489 3.00533461,6.18206135 L5.13066834,10.0000615 L3.07333479,10.0000615 C2.81333453,9.37872792 2.66666798,8.70339504 2.66666798,8.00006143 L2.66666798,8.00006143 Z M10.8553547,6.0001345 L12.9260198,6.0001345 C13.1866869,6.62146806 13.3333531,7.29680116 13.3333531,8.0001345 C13.3333531,8.56280159 13.23802,9.10680155 13.068687,9.62146859 L10.8553547,6.0001345 L10.8553547,6.0001345 Z M12.1253424,4.6668232 L7.6900085,4.6668232 L8.96000852,2.76215643 C10.2173425,3.00148988 11.3346764,3.69748994 12.1253424,4.6668232 L12.1253424,4.6668232 Z M7.39533564,2.70608827 L6.08800201,4.66675495 L6.00000197,4.66675495 L6.00000197,4.79808814 L4.78000211,6.62808857 L3.76666879,4.80942175 C4.63333525,3.67408834 5.93266887,2.87942144 7.39533564,2.70608827 L7.39533564,2.70608827 Z M3.87467996,11.3334284 L8.63934653,11.3334284 L7.50001347,13.3074289 C6.05601319,13.1654281 4.76067999,12.4200947 3.87467996,11.3334284 L3.87467996,11.3334284 Z M9.09335402,13.2134032 L11.3313538,9.33673696 L12.3606875,11.020736 C11.5913532,12.1154039 10.4266874,12.9234036 9.09335402,13.2134032 L9.09335402,13.2134032 Z"
          id="Shape" fill="#000000"></path>
      </g>
    </g>
  </g>
</svg>
