<?xml version="1.0" encoding="UTF-8"?>
<svg width="16px" height="16px" viewBox="0 0 16 16" version="1.1" xmlns="http://www.w3.org/2000/svg"
     xmlns:xlink="http://www.w3.org/1999/xlink">
  <title>Integrations</title>
  <g id="layout" stroke="none" stroke-width="1" fill="none" fill-rule="evenodd">
    <g id="Artboard" transform="translate(-226.000000, -198.000000)">
      <g id="Integrations" transform="translate(226.000000, 198.000000)">
        <rect id="Background" x="0" y="0" width="16" height="16"></rect>
        <path
          d="M2.66666668,7.33333345 L6.66666677,7.33333345 C7.03533311,7.33333345 7.33333345,7.03466681 7.33333345,6.66666677 L7.33333345,2.66666668 C7.33333345,2.29866664 7.03533374,2 6.66666677,2 L2.66666668,2 C2.29800002,2 2,2.29866664 2,2.66666668 L2,6.66666677 C2,7.03466681 2.29800002,7.33333345 2.66666668,7.33333345 L2.66666668,7.33333345 Z M3.33336293,3.3333338 L6.00002948,3.3333338 L6.00002948,6.00000035 L3.33336293,6.00000035 L3.33336293,3.3333338 L3.33336293,3.3333338 Z M13.3333029,2 L9.33330362,2 C8.96463736,2 8.66663707,2.29866664 8.66663707,2.66666668 L8.66663707,6.66666677 C8.66663707,7.03466681 8.96463672,7.33333345 9.33330362,7.33333345 L13.3333029,7.33333345 C13.7019692,7.33333345 13.9999695,7.03466681 13.9999695,6.66666677 L13.9999695,2.66666668 C13.9999695,2.29866664 13.7019692,2 13.3333029,2 L13.3333029,2 Z M12.6666669,5.99999991 L10,5.99999991 L10,3.33333336 L12.6666669,3.33333336 L12.6666669,5.99999991 L12.6666669,5.99999991 Z M6.66666677,14 C7.03533311,14 7.33333345,13.7019997 7.33333345,13.3333334 L7.33333345,9.33333354 C7.33333345,8.96466722 7.03533374,8.6666669 6.66666677,8.6666669 L2.66666668,8.6666669 C2.29800002,8.6666669 2,8.96466658 2,9.33333354 L2,13.3333334 C2,13.7019997 2.29800002,14 2.66666668,14 L6.66666677,14 L6.66666677,14 Z M3.33336293,10 L6.00002948,10 L6.00002948,12.6666669 L3.33336293,12.6666669 L3.33336293,10 L3.33336293,10 Z M12.0000297,9.33333518 L10.6666963,9.33333518 L10.6666963,10.6666686 L9.33336293,10.6666686 L9.33336293,12.0000019 L10.6666963,12.0000019 L10.6666963,13.3333352 L12.0000297,13.3333352 L12.0000297,12.0000019 L13.3333629,12.0000019 L13.3333629,10.6666686 L12.0000297,10.6666686 L12.0000297,9.33333518 Z"
          id="Shape" fill="#000000"></path>
      </g>
    </g>
  </g>
</svg>
