<?xml version="1.0" encoding="UTF-8"?>
<svg width="16px" height="16px" viewBox="0 0 16 16" version="1.1" xmlns="http://www.w3.org/2000/svg"
     xmlns:xlink="http://www.w3.org/1999/xlink">
  <title>Kitchen Setup</title>
  <g id="layout" stroke="none" stroke-width="1" fill="none" fill-rule="evenodd">
    <g id="Artboard" transform="translate(-226.000000, -59.000000)">
      <g id="Kitchen-Setup" transform="translate(226.000000, 59.000000)">
        <polygon id="Path" points="0 0 16 0 16 16 0 16"></polygon>
        <path
          d="M7.33333333,6 L6,6 L6,1.33333333 L4.66666667,1.33333333 L4.66666667,6 L3.33333333,6 L3.33333333,1.33333333 L2,1.33333333 L2,6 C2,7.41333333 3.10666667,8.56 4.5,8.64666667 L4.5,14.6666667 L6.16666667,14.6666667 L6.16666667,8.64666667 C7.56,8.56 8.66666667,7.41333333 8.66666667,6 L8.66666667,1.33333333 L7.33333333,1.33333333 L7.33333333,6 Z M10.6666667,4 L10.6666667,9.33333333 L12.3333333,9.33333333 L12.3333333,14.6666667 L14,14.6666667 L14,1.33333333 C12.16,1.33333333 10.6666667,2.82666667 10.6666667,4 Z"
          id="Shape" fill="#000000" fill-rule="nonzero"></path>
      </g>
    </g>
  </g>
</svg>
