<?xml version="1.0" encoding="UTF-8"?>
<svg width="16px" height="16px" viewBox="0 0 16 16" version="1.1" xmlns="http://www.w3.org/2000/svg"
     xmlns:xlink="http://www.w3.org/1999/xlink">
  <title>Labor Reports</title>
  <g id="layout" stroke="none" stroke-width="1" fill="none" fill-rule="evenodd">
    <g id="Artboard" transform="translate(-203.000000, -196.000000)">
      <g id="Labor-Reports" transform="translate(203.000000, 196.000000)">
        <rect id="Background" x="0" y="0" width="15.2777778" height="15.2777778"></rect>
        <path
          d="M9.54861111,7.00230704 L14.0046287,7.00230704 L14.0046287,8.27545507 L9.54861111,8.27545507 L9.54861111,7.00230704 Z M10.1851813,9.54861111 L14.0046257,9.54861111 L14.0046257,10.8217595 L10.1851813,10.8217595 L10.1851813,9.54861111 Z M8.91203509,4.45600298 L14.0046272,4.45600298 L14.0046272,5.729151 L8.91203509,5.729151 L8.91203509,4.45600298 Z M2.54629439,12.0948919 L7.63888725,12.0948919 L8.27546117,12.0948919 L8.91203509,12.0948919 L8.91203509,11.4583179 C8.91203509,9.70328317 7.48419958,8.27544742 5.72916503,8.27544742 L4.45601673,8.27544742 C2.70098195,8.27544742 1.27314621,9.70328317 1.27314621,11.4583179 L1.27314621,12.0948919 L1.9097203,12.0948919 L2.54629439,12.0948919 L2.54629439,12.0948919 Z M5.09259247,7.63888088 C6.3625578,7.63888088 7.32060161,6.68083706 7.32060161,5.41087174 C7.32060161,4.14090668 6.3625578,3.1828626 5.09259247,3.1828626 C3.82262741,3.1828626 2.86458333,4.14090668 2.86458333,5.41087174 C2.86458333,6.68083706 3.82262741,7.63888088 5.09259247,7.63888088 L5.09259247,7.63888088 Z"
          id="Shape" fill="#000000"></path>
      </g>
    </g>
  </g>
</svg>
