<?xml version="1.0" encoding="UTF-8"?>
<svg width="16px" height="16px" viewBox="0 0 16 16" version="1.1" xmlns="http://www.w3.org/2000/svg"
     xmlns:xlink="http://www.w3.org/1999/xlink">
  <title>Menu</title>
  <g id="layout" stroke="none" stroke-width="1" fill="none" fill-rule="evenodd">
    <g id="Artboard" transform="translate(-226.000000, -112.000000)">
      <g id="Menu" transform="translate(226.000000, 112.000000)">
        <rect id="Background" x="0" y="0" width="16" height="16"></rect>
        <path
          d="M8.66666798,1.33334451 C8.68066792,1.33334451 8.69333462,1.34067779 8.7073352,1.34201119 C8.76666836,1.3453446 8.82400199,1.35734452 8.88000175,1.37601127 C8.90133481,1.38334455 8.9226685,1.38867797 8.94266832,1.39801126 C9.01333495,1.43067795 9.08066818,1.47134469 9.1380018,1.528678 L9.1380018,1.528678 L13.1380018,5.52867823 C13.1953342,5.58601154 13.2360014,5.65334492 13.2686679,5.7240114 C13.2780012,5.74401154 13.2840017,5.76467806 13.2906673,5.78601135 C13.3100014,5.84201111 13.3213349,5.89934442 13.3246677,5.95867766 C13.3260015,5.97334478 13.3333346,5.98601116 13.3333346,6.0000111 L13.3333346,6.0000111 L13.3333346,13.3333445 C13.3333346,14.0686788 12.7353351,14.6666778 12.0000013,14.6666778 L12.0000013,14.6666778 L4.00000132,14.6666778 C3.26466787,14.6666778 2.66666798,14.0686788 2.66666798,13.3333445 L2.66666798,13.3333445 L2.66666798,2.66667787 C2.66666798,1.93134455 3.26466787,1.33334451 4.00000132,1.33334451 L4.00000132,1.33334451 Z M7.99999145,2.66668903 L3.99999145,2.66668903 L3.99999145,13.3333557 L12.0013253,13.3333557 L11.9999914,6.66668903 L8.66665817,6.66668903 C8.2979911,6.66668903 7.99999145,6.36868869 7.99999145,6.00002236 L7.99999145,6.00002236 L7.99999145,2.66668903 Z M10.666669,10.6666719 L10.666669,12.0000053 L5.33333596,12.0000053 L5.33333596,10.6666719 L10.666669,10.6666719 Z M10.666669,7.9999829 L10.666669,9.3333159 L5.33333596,9.3333159 L5.33333596,7.9999829 L10.666669,7.9999829 Z M6.66666922,5.33333596 L6.66666922,6.6666693 L5.33333596,6.6666693 L5.33333596,5.33333596 L6.66666922,5.33333596 Z M9.33332741,3.60932437 L9.33332741,5.33332413 L11.0573272,5.33332413 L9.33332741,3.60932437 Z"
          id="Combined-Shape" fill="#000000"></path>
      </g>
    </g>
  </g>
</svg>
