<?xml version="1.0" encoding="UTF-8"?>
<svg width="15px" height="16px" viewBox="0 0 15 16" version="1.1" xmlns="http://www.w3.org/2000/svg"
     xmlns:xlink="http://www.w3.org/1999/xlink">
  <title>Online Store Setup</title>
  <g id="layout" stroke="none" stroke-width="1" fill="none" fill-rule="evenodd">
    <g id="Artboard" transform="translate(-226.000000, -87.000000)" fill="#000000" fill-rule="nonzero">
      <g id="Online-Store-Setup" transform="translate(226.000000, 87.000000)">
        <path
          d="M14.0625,1.78125 L12.90625,1.78125 L12.90625,0.46875 C12.90625,0.209875 12.696375,0 12.4375,0 L2.5625,0 C2.303625,0 2.09375,0.209875 2.09375,0.46875 L2.09375,1.78125 L0.9375,1.78125 C0.4205625,1.78125 0,2.2018125 0,2.71875 L0,12.59375 C0,13.1106875 0.4205625,13.53125 0.9375,13.53125 L4.72,13.53125 C4.59240625,14.0416562 4.4648125,14.5520625 4.33715625,15.0624687 L3.87840625,15.0624687 C3.61953125,15.0624687 3.40965625,15.2723437 3.40965625,15.5312187 C3.40965625,15.7900937 3.61953125,15.9999687 3.87840625,15.9999687 L11.3090625,15.9999687 C11.5679375,15.9999687 11.7778125,15.7900937 11.7778125,15.5312187 C11.7778125,15.2723437 11.5679375,15.0624687 11.3090625,15.0624687 L10.8489062,15.0624687 C10.7758125,14.7785312 10.5099688,13.7770312 10.4462813,13.53125 L14.0625,13.53125 C14.5794375,13.53125 15,13.1106875 15,12.59375 L15,2.71875 C15,2.2018125 14.5794375,1.78125 14.0625,1.78125 Z M14.0625,2.71875 L14.0625,10.71875 L12.90625,10.71875 L12.90625,2.71875 L14.0625,2.71875 Z M3.03125,0.9375 L11.96875,0.9375 L11.96875,10.71875 L3.03125,10.71875 L3.03125,0.9375 Z M2.09375,2.71875 L2.09375,10.71875 L0.9375,10.71875 L0.9375,2.71875 L2.09375,2.71875 Z M9.72803125,14.485375 C9.77803125,14.673625 9.828875,14.8651875 9.88040625,15.0624688 L5.3035625,15.0624688 C5.4311875,14.5520625 5.55878125,14.0416563 5.68634375,13.53125 L9.478375,13.53125 C9.5635625,13.8655625 9.64696875,14.1799063 9.72803125,14.485375 L9.72803125,14.485375 Z M0.9375,12.59375 L0.9375,11.65625 L14.0625,11.65625 L14.0625,12.59375 L0.9375,12.59375 Z"
          id="Shape"></path>
        <path
          d="M6.74515625,5.0368125 C6.51921875,5.07009375 6.3446875,5.2650625 6.3446875,5.5 C6.3446875,5.7581875 6.55525,5.96878125 6.8134375,5.96878125 C7.071625,5.96878125 7.2821875,5.7581875 7.2821875,5.5 C7.2821875,5.32515625 7.1854375,5.172375 7.04290625,5.09184375 C7.04934375,5.09196875 7.05565625,5.09265625 7.06209375,5.09265625 L8.08359375,5.09265625 C7.94178125,5.17340625 7.845625,5.32571875 7.845625,5.50003125 C7.845625,5.75821875 8.0561875,5.96878125 8.314375,5.96878125 C8.5725625,5.96878125 8.783125,5.75821875 8.783125,5.50003125 C8.783125,5.2729375 8.620125,5.0828125 8.4051875,5.0403125 C8.68353125,4.94428125 8.90190625,4.7221875 8.985625,4.42846875 L9.31440625,3.27521875 C9.375375,3.0614375 9.336625,2.83803125 9.20815625,2.662375 C9.074625,2.47975 8.86834375,2.375 8.64209375,2.375 L6.59446875,2.375 L6.55453125,2.22396875 C6.50015625,2.01828125 6.31409375,1.875 6.101375,1.875 L5.6209375,1.875 C5.3620625,1.875 5.1521875,2.084875 5.1521875,2.34375 C5.1521875,2.602625 5.3620625,2.8125 5.6209375,2.8125 L5.7404375,2.8125 L6.16,4.39965625 C6.2396875,4.701125 6.46321875,4.93503125 6.74515625,5.0368125 L6.74515625,5.0368125 Z M8.328875,3.3125 L8.08865625,4.155125 L7.065,4.1549375 L6.8423125,3.3125 L8.328875,3.3125 Z"
          id="Shape"></path>
        <path
          d="M4.90625,6.96871875 L4.4375,6.96871875 C4.178625,6.96871875 3.96875,7.17859375 3.96875,7.43746875 C3.96875,7.69634375 4.178625,7.90621875 4.4375,7.90621875 L4.90625,7.90621875 C5.165125,7.90621875 5.375,7.69634375 5.375,7.43746875 C5.375,7.17859375 5.165125,6.96871875 4.90625,6.96871875 Z"
          id="Path"></path>
        <path
          d="M10.5624063,6.96871875 L6.78125,6.96871875 C6.522375,6.96871875 6.3125,7.17859375 6.3125,7.43746875 C6.3125,7.69634375 6.522375,7.90621875 6.78125,7.90621875 L10.5624063,7.90621875 C10.8212813,7.90621875 11.0311563,7.69634375 11.0311563,7.43746875 C11.0311563,7.17859375 10.8212813,6.96871875 10.5624063,6.96871875 Z"
          id="Path"></path>
        <path
          d="M4.90625,8.84371875 L4.4375,8.84371875 C4.178625,8.84371875 3.96875,9.05359375 3.96875,9.31246875 C3.96875,9.57134375 4.178625,9.78121875 4.4375,9.78121875 L4.90625,9.78121875 C5.165125,9.78121875 5.375,9.57134375 5.375,9.31246875 C5.375,9.05359375 5.165125,8.84371875 4.90625,8.84371875 Z"
          id="Path"></path>
        <path
          d="M10.5624063,8.84371875 L6.78125,8.84371875 C6.522375,8.84371875 6.3125,9.05359375 6.3125,9.31246875 C6.3125,9.57134375 6.522375,9.78121875 6.78125,9.78121875 L10.5624063,9.78121875 C10.8212813,9.78121875 11.0311563,9.57134375 11.0311563,9.31246875 C11.0311563,9.05359375 10.8212813,8.84371875 10.5624063,8.84371875 Z"
          id="Path"></path>
      </g>
    </g>
  </g>
</svg>
