<?xml version="1.0" encoding="UTF-8"?>
<svg width="16px" height="16px" viewBox="0 0 16 16" version="1.1" xmlns="http://www.w3.org/2000/svg"
     xmlns:xlink="http://www.w3.org/1999/xlink">
  <title>Profile Settings</title>
  <g id="layout" stroke="none" stroke-width="1" fill="none" fill-rule="evenodd">
    <g id="Artboard" transform="translate(-227.000000, -65.000000)">
      <g id="Profile-Settings" transform="translate(227.000000, 65.000000)">
        <rect id="Background" x="0" y="0" width="16" height="16"></rect>
        <path
          d="M8.00001118,1.33334451 C11.6140109,1.33334451 14.6666778,4.3860113 14.6666778,8.00001118 C14.6666778,10.1266779 13.6053456,12.0520104 12.0000113,13.2826779 L12.0000113,13.2826779 L12.0000113,13.3333445 L11.9320104,13.3333445 C10.820011,14.1633452 9.45801152,14.6666778 8.00001118,14.6666778 C6.54201124,14.6666778 5.18001133,14.1633452 4.06801138,13.3333445 L4.06801138,13.3333445 L4.00001122,13.3333445 L4.00001122,13.2826779 C2.39467783,12.0520104 1.33334451,10.1260111 1.33334451,8.00001118 C1.33334451,4.3860113 4.3860113,1.33334451 8.00001118,1.33334451 Z M8.66666882,11.0486678 L7.33333566,11.0486678 C6.37866946,11.0486678 5.58066915,11.721335 5.38266921,12.6180013 C6.16133538,13.0693348 7.05600204,13.3333346 8.00000232,13.3333346 C8.94400244,13.3333346 9.83866903,13.0693348 10.6173361,12.6180013 C10.4193355,11.7220013 9.62133565,11.0486678 8.66666882,11.0486678 L8.66666882,11.0486678 Z M8.00000132,2.66668903 C5.10866805,2.66668903 2.66666798,5.1086889 2.66666798,8.00002213 C2.66666798,9.4506887 3.28200122,10.7880213 4.26000123,11.7606896 C4.76400125,10.5613561 5.95200098,9.7153561 7.33333465,9.7153561 L7.33333465,9.7153561 L8.66666798,9.7153561 C10.0480017,9.7153561 11.2353351,10.5606889 11.7400017,11.7606896 C12.7180011,10.7880213 13.3333346,9.4506887 13.3333346,8.00002213 C13.3333346,5.1086889 10.8913346,2.66668903 8.00000132,2.66668903 Z M8.00000263,3.99999145 C9.52000245,3.99999145 10.6666693,5.14665808 10.6666693,6.66665762 C10.6666693,8.18665716 9.52000245,9.3333238 8.00000263,9.3333238 C6.48000281,9.3333238 5.33333596,8.18665716 5.33333596,6.66665762 C5.33333596,5.14665808 6.48000281,3.99999145 8.00000263,3.99999145 Z M8.00001398,5.33333596 C7.21468088,5.33333596 6.66668048,5.88133623 6.66668048,6.66666913 C6.66668048,7.45200203 7.21468088,8.0000023 8.00001398,8.0000023 C8.78534771,8.0000023 9.33334747,7.45200203 9.33334747,6.66666913 C9.33334747,5.88133623 8.78534707,5.33333596 8.00001398,5.33333596 Z"
          id="Combined-Shape" fill="#000000"></path>
      </g>
    </g>
  </g>
</svg>
