<?xml version="1.0" encoding="UTF-8"?>
<svg width="16px" height="16px" viewBox="0 0 16 16" version="1.1" xmlns="http://www.w3.org/2000/svg"
     xmlns:xlink="http://www.w3.org/1999/xlink">
  <title>Restaurant</title>
  <g id="layout" stroke="none" stroke-width="1" fill="none" fill-rule="evenodd">
    <g id="Artboard" transform="translate(-226.000000, -33.000000)">
      <g id="Restaurant" transform="translate(226.000000, 33.000000)">
        <rect id="Background" x="0" y="0" width="15.2777778" height="15.2777778"></rect>
        <path
          d="M11.9159726,2.61811339 C11.6874417,2.23680554 11.269213,2 10.8248842,2 L3.90659718,2 C3.46226856,2 3.04403925,2.23680554 2.81550938,2.61811339 L1.09103002,5.49160883 C1.03119214,5.59091419 1,5.70358779 1,5.81944422 C1,6.45983813 1.24571755,7.03784678 1.63657406,7.48599528 L1.63657406,12.8217589 C1.63657406,13.5239004 2.20758102,14.0949072 2.90972223,14.0949072 L5.45601827,14.0949072 L9.2754631,14.0949072 L11.8217591,14.0949072 C12.5239007,14.0949072 13.0949068,13.5239004 13.0949068,12.8217589 L13.0949068,7.48599528 C13.4857636,7.03784678 13.731481,6.45983777 13.731481,5.81944422 C13.731481,5.70358779 13.700289,5.59091419 13.640451,5.49160883 L11.9159726,2.61811339 L11.9159726,2.61811339 Z M12.4481474,5.97922484 C12.3692131,6.60561318 11.833217,7.09259256 11.1851849,7.09259256 C10.4830432,7.09259256 9.91203669,6.52158557 9.91203669,5.81944449 C9.91203669,5.77615763 9.89612255,5.73796322 9.88721058,5.69722225 L9.89994236,5.69467591 L9.41550906,3.27314812 L10.8248839,3.27314812 L12.4481474,5.97922484 L12.4481474,5.97922484 Z M6.61394667,3.27314812 L8.11689806,3.27314812 L8.63443265,5.86082222 C8.61215259,6.54322934 8.05324044,7.09259256 7.3657405,7.09259256 C6.67824052,7.09259256 6.11932834,6.54322934 6.09704835,5.86082222 L6.61394667,3.27314812 L6.61394667,3.27314812 Z M3.90659703,3.27314812 L5.31597193,3.27314812 L4.83217603,5.69467591 L4.84490781,5.69722225 C4.8353583,5.73796322 4.81944424,5.77615763 4.81944424,5.81944449 C4.81944424,6.52158557 4.24843737,7.09259256 3.54629619,7.09259256 C2.89826378,7.09259256 2.36226843,6.60561318 2.2833332,5.97922484 L3.90659703,3.27314812 L3.90659703,3.27314812 Z M6.09259247,12.8217588 L6.09259247,10.9120366 L8.63888889,10.9120366 L8.63888889,12.8217588 L6.09259247,12.8217588 L6.09259247,12.8217588 Z M9.91203703,12.8217588 L9.91203703,10.9120367 C9.91203703,10.2098956 9.34102969,9.63888863 8.63888903,9.63888863 L6.0925925,9.63888863 C5.39045157,9.63888863 4.81944449,10.2098956 4.81944449,10.9120367 L4.81944449,12.8217588 L2.90972222,12.8217588 L2.90972222,8.27534682 C3.11406255,8.32818259 3.32476847,8.36574045 3.54629629,8.36574045 C4.30572906,8.36574045 4.98940977,8.03153932 5.45601849,7.50190926 C5.92262721,8.03153932 6.60630792,8.36574045 7.3657405,8.36574045 C8.1251736,8.36574045 8.80885405,8.03153932 9.27546277,7.50190926 C9.74207149,8.03153932 10.4257519,8.36574045 11.185185,8.36574045 C11.4067125,8.36574045 11.6174194,8.32818259 11.8217588,8.27534682 L11.8217588,12.8217588 L9.91203703,12.8217588 L9.91203703,12.8217588 Z"
          id="Shape" fill="#000000"></path>
      </g>
    </g>
  </g>
</svg>
