<?xml version="1.0" encoding="UTF-8"?>
<svg width="16px" height="16px" viewBox="0 0 16 16" version="1.1" xmlns="http://www.w3.org/2000/svg"
     xmlns:xlink="http://www.w3.org/1999/xlink">
  <title>Sales</title>
  <g id="layout" stroke="none" stroke-width="1" fill="none" fill-rule="evenodd">
    <g id="Artboard" transform="translate(-203.000000, -95.000000)">
      <g id="Sales" transform="translate(203.000000, 95.000000)">
        <rect id="Background" x="0" y="0" width="15.2777778" height="15.2777778"></rect>
        <path
          d="M10.821757,1.90972222 C11.1737824,1.90972222 11.4583312,2.19427085 11.4583312,2.5462963 L11.4583312,2.5462963 L11.4583312,7.00231485 L13.368053,7.00231485 C13.7200784,7.00231485 14.0046272,7.28686333 14.0046272,7.63888889 L14.0046272,7.63888889 L14.0046272,11.4583331 C14.0046272,12.5112268 13.1477983,13.3680556 12.0949054,13.3680556 L12.0949054,13.3680556 L3.18286843,13.3680556 C2.12997487,13.3680556 1.27314621,12.5112268 1.27314621,11.4583331 L1.27314621,11.4583331 L1.27314621,2.5462963 C1.27314621,2.19427085 1.55769483,1.90972222 1.90972026,1.90972222 L1.90972026,1.90972222 Z M10.1851826,3.18287034 L2.54629432,3.18287034 L2.54629432,11.4583332 C2.54629432,11.8097222 2.83147948,12.0949069 3.18286837,12.0949069 L3.18286837,12.0949069 L10.2940366,12.0949069 C10.2240146,11.8962959 10.1851826,11.6817708 10.1851826,11.4583332 L10.1851826,11.4583332 L10.1851826,3.18287034 Z M12.7314795,8.27546272 L11.4583311,8.27546272 L11.4583311,11.4583332 C11.4583311,11.8097222 11.7435164,12.0949072 12.0949053,12.0949072 C12.4462943,12.0949072 12.7314795,11.8097222 12.7314795,11.4583332 L12.7314795,11.4583332 L12.7314795,8.27546272 Z M8.91203655,9.54861876 L8.91203655,10.8217668 L7.00231433,10.8217668 L7.00231433,9.54861876 L8.91203655,9.54861876 Z M8.91203655,7.00232252 L8.91203655,8.27547073 L3.81944444,8.27547073 L3.81944444,7.00232252 L8.91203655,7.00232252 Z M8.91203655,4.45602629 L8.91203655,5.72917441 L3.81944444,5.72917441 L3.81944444,4.45602629 L8.91203655,4.45602629 Z"
          id="Combined-Shape" fill="#000000"></path>
      </g>
    </g>
  </g>
</svg>
